<svg version="1.1" xmlns="http://www.w3.org/2000/svg" xmlns:xlink="http://www.w3.org/1999/xlink" x="0px" y="0px"
	 viewBox="0 0 134 136">
<g>
	<path class="st0" d="M134,66.9c0-17.9-7-34.7-19.6-47.4C101.8,6.9,84.9,0,67,0C49.1,0,32.2,6.9,19.6,19.6C7,32.2,0,49,0,66.9
		c0,17.9,7,34.7,19.6,47.3c8.2,8.1,18.1,13.9,28.9,17v-1.2c-10.5-3.1-20.1-8.7-28.1-16.6C8,101.1,1.2,84.5,1.2,66.9
		S8,32.8,20.4,20.4C32.8,8,49.4,1.2,67,1.2c17.6,0,34.2,6.8,46.6,19.2c12.4,12.4,19.3,28.9,19.3,46.5s-6.8,34.1-19.3,46.5
		c-7.9,7.9-17.6,13.6-28.1,16.6v1.2c10.8-3.1,20.7-8.9,28.9-17C127,101.7,134,84.9,134,66.9z"/>
	<path class="st0" d="M74.4,40.6l7.7-29.1c0.1-0.2-0.1-0.5-0.3-0.6c-0.2-0.1-0.5,0.1-0.6,0.3c0,0,0,0,0,0l-7.8,29.4
		C73.5,40.6,74.4,40.6,74.4,40.6z M78.4,40.6l11-26.6c0.1-0.2,0-0.5-0.2-0.6c-0.2-0.1-0.5,0-0.6,0.2L77.4,40.6L78.4,40.6L78.4,40.6
		L78.4,40.6z M67.5,9.5C67.4,9.2,67.2,9,67,9c-0.2,0-0.4,0.2-0.4,0.4v31.1h0.9L67.5,9.5C67.5,9.5,67.5,9.5,67.5,9.5z M75,10
		c0-0.3-0.1-0.5-0.4-0.5c-0.3,0-0.5,0.1-0.5,0.4L70,40.6h0.9C70.9,40.6,75,10,75,10z M87.6,40.6l14.6-19.1c0.2-0.2,0.1-0.5-0.1-0.6
		c0,0,0,0,0,0c-0.2-0.2-0.5-0.1-0.6,0.1c0,0,0,0,0,0l-15,19.7L87.6,40.6L87.6,40.6z M94,40.6l14-14c0.2-0.2,0.2-0.5,0-0.7
		c-0.2-0.2-0.5-0.2-0.6,0c0,0,0,0,0,0L92.7,40.6H94z M102.1,40.6l10.8-8.3c0.2-0.2,0.2-0.4,0.1-0.6c0,0,0,0,0,0
		c-0.2-0.2-0.4-0.2-0.6-0.1c0,0,0,0,0,0l-11.8,9C100.6,40.6,102.1,40.6,102.1,40.6z M82.8,40.6l13.4-23.2c0.1-0.2,0-0.5-0.2-0.6
		c-0.2-0.1-0.5,0-0.6,0.2L81.7,40.6L82.8,40.6L82.8,40.6z M40,40.6h1.3L26.6,26c-0.2-0.2-0.5-0.2-0.6,0c0,0,0,0,0,0
		c-0.2,0.2-0.2,0.5,0,0.7L40,40.6z M20.9,31.8c-0.2,0.2-0.1,0.5,0.1,0.6c0,0,0,0,0,0l10.7,8.1h1.5l-11.6-8.8
		C21.3,31.6,21,31.6,20.9,31.8C20.9,31.8,20.9,31.8,20.9,31.8z M46.2,40.6h1.2L32.4,21c-0.2-0.2-0.4-0.2-0.6-0.1c0,0,0,0,0,0
		c-0.2,0.2-0.2,0.4-0.1,0.6c0,0,0,0,0,0L46.2,40.6L46.2,40.6z M63.9,40.6L59.7,9.9c0-0.3-0.3-0.4-0.5-0.4c-0.3,0-0.4,0.3-0.4,0.5
		L63,40.6H63.9z M16.8,38c-0.1,0.2-0.1,0.5,0.2,0.6l3.5,2h1.8l-4.9-2.8C17.2,37.7,16.9,37.7,16.8,38L16.8,38z M59.5,40.6h1
		l-7.9-29.3c-0.1-0.2-0.3-0.4-0.6-0.3c-0.2,0.1-0.4,0.3-0.3,0.6L59.5,40.6L59.5,40.6z M55.6,40.6h1L45.4,13.7
		c-0.1-0.2-0.4-0.3-0.6-0.2c-0.2,0.1-0.3,0.4-0.3,0.6c0,0,0,0,0,0L55.6,40.6L55.6,40.6z M51.1,40.6h1.1L38.4,17
		c-0.1-0.2-0.4-0.3-0.6-0.2c-0.2,0.1-0.3,0.4-0.2,0.6C37.6,17.5,51.1,40.6,51.1,40.6z M37.8,116.5c-0.1,0.2-0.1,0.5,0.2,0.6
		c0.2,0.1,0.5,0.1,0.6-0.2l13.7-23.7h-1.1L37.8,116.5z M44.8,120.4c0.2,0.1,0.5,0,0.6-0.3c0,0,0,0,0,0l3.1-7.4v-2.4l-3.9,9.4
		C44.5,120.1,44.6,120.3,44.8,120.4z M55.6,93.2l-2.9,7c0.3-0.1,0.7-0.2,1.1-0.2l2.8-6.8C56.6,93.2,55.6,93.2,55.6,93.2z M59.6,93.2
		L58,99.4c0.3,0,0.6-0.1,1-0.1l1.6-6C60.5,93.2,59.6,93.2,59.6,93.2z M63.1,93.2L62.3,99c0.3,0,0.6,0,0.9-0.1l0.8-5.7L63.1,93.2
		C63.1,93.2,63.1,93.2,63.1,93.2z M31.9,93.2l-10.8,8.3c-0.2,0.2-0.2,0.4-0.1,0.6c0,0,0,0,0,0c0.2,0.2,0.4,0.2,0.6,0.1c0,0,0,0,0,0
		l11.8-9L31.9,93.2C31.9,93.3,31.9,93.2,31.9,93.2z M66.5,93.2v5.6h0.9v-5.6H66.5z M46.4,93.2l-14.6,19.1c-0.2,0.2-0.1,0.5,0.1,0.6
		c0,0,0,0,0,0c0.1,0.1,0.2,0.1,0.3,0.1c0.1,0,0.3-0.1,0.4-0.2l15-19.7L46.4,93.2L46.4,93.2z M40,93.2l-14,14c-0.2,0.2-0.2,0.5,0,0.7
		c0.2,0.2,0.5,0.2,0.7,0l14.7-14.6H40L40,93.2z M94,93.2h-1.3l14.7,14.6c0.2,0.2,0.5,0.2,0.7,0c0.2-0.2,0.2-0.5,0-0.7L94,93.2z
		 M112.8,102.2c0.1,0,0.3-0.1,0.4-0.2c0.2-0.2,0.1-0.5-0.1-0.6c0,0,0,0,0,0l-10.7-8.1h-1.5l11.6,8.9
		C112.6,102.2,112.7,102.2,112.8,102.2z M87.8,93.2h-1.2l15,19.6c0.1,0.1,0.2,0.2,0.4,0.2c0.3,0,0.5-0.2,0.5-0.5
		c0-0.1,0-0.2-0.1-0.3C102.4,112.2,87.8,93.2,87.8,93.2z M116.8,96.1c0.2,0,0.3-0.1,0.4-0.2c0.1-0.2,0.1-0.5-0.2-0.6l-3.5-2h-1.8
		l4.9,2.8C116.7,96.1,116.7,96.1,116.8,96.1z M73.6,93.2l1.6,6c0.3,0,0.7,0.1,1,0.1l-1.6-6.2L73.6,93.2
		C73.6,93.2,73.6,93.2,73.6,93.2z M20.8,93.2l-3.8,2.2c-0.2,0.1-0.3,0.4-0.2,0.6c0.1,0.2,0.4,0.3,0.6,0.2l5.2-3H20.8z M70.1,93.2
		l0.8,5.7c0.3,0,0.6,0,0.9,0.1L71,93.2C71,93.2,70.1,93.2,70.1,93.2z M89,120.5c0.3,0,0.5-0.2,0.5-0.5c0-0.1,0-0.1,0-0.2l-3.9-9.4
		v2.4l3.1,7.4C88.7,120.4,88.8,120.5,89,120.5z M77.4,93.2l2.8,6.8c0.4,0.1,0.8,0.2,1.1,0.2l-2.9-7H77.4z M82.9,93.2h-1.1l13.7,23.6
		c0.1,0.2,0.4,0.3,0.6,0.2c0.2-0.1,0.3-0.4,0.2-0.6L82.9,93.2z M113.1,40.6l3.8-2.2c0.2-0.1,0.3-0.4,0.2-0.6
		c-0.1-0.2-0.4-0.3-0.6-0.2l-5.2,3H113.1z M100.9,60.1h1.7l-0.8-2.6L100.9,60.1z"/>
	<path class="st0" d="M130.3,66.9c0-16.9-6.6-32.8-18.5-44.7C99.9,10.3,84,3.7,67,3.7s-32.9,6.6-44.8,18.5
		C10.3,34.1,3.7,50,3.7,66.9s6.6,32.8,18.5,44.7c7.4,7.4,16.4,12.8,26.3,15.8v-1.2c-0.3-0.1-0.6-0.2-0.9-0.3l0.4-1.1
		c0.2,0.1,0.3,0.1,0.5,0.2v-1.2c-16.1-5.3-29.2-17.2-36.1-32.5h109.2c-6.9,15.3-20,27.2-36.1,32.5v1.2c0.2-0.1,0.3-0.1,0.5-0.1
		l0.4,1.1c-0.3,0.1-0.6,0.2-0.8,0.3v1.2c9.8-3,18.8-8.3,26.2-15.8C123.7,99.7,130.3,83.9,130.3,66.9L130.3,66.9z M123,93.9l-1.1-0.5
		c0.4-0.8,0.8-1.7,1.1-2.5l1.1,0.4C123.8,92.1,123.4,93,123,93.9L123,93.9z M124.7,90.1l-1.1-0.4c0.3-0.8,0.7-1.7,1-2.6l1.1,0.4
		C125.4,88.4,125,89.2,124.7,90.1z M115.7,56.6v-2.1h7.9v3.4H121v-1.1h-1.8v1.8h2.4v2h-2.4v2h1.8v-1.1h2.6v3.4h-7.9v-2.1h1v-6.1
		L115.7,56.6L115.7,56.6z M126.1,86.3l-1.1-0.4c0.3-0.9,0.6-1.9,0.9-2.9l1.1,0.3C126.7,84.3,126.4,85.3,126.1,86.3z M127.3,82.2
		l-1.1-0.3c0.2-0.9,0.4-1.8,0.6-2.7l1.1,0.2C127.7,80.3,127.5,81.2,127.3,82.2z M128.1,78.2L127,78c0.2-0.8,0.3-1.6,0.4-2.5l1.1,0.2
		C128.4,76.5,128.3,77.3,128.1,78.2z M128.7,74.4l-1.1-0.2c0.1-0.9,0.2-1.8,0.3-2.7l1.1,0.1C128.9,72.5,128.8,73.5,128.7,74.4
		L128.7,74.4z M129,70.4l-1.1-0.1c0.1-0.9,0.1-1.8,0.1-2.8h1.1C129.1,68.5,129.1,69.4,129,70.4L129,70.4z M129.1,66.3H128
		c0-0.9,0-1.8-0.1-2.7l1.1-0.1C129.1,64.4,129.1,65.4,129.1,66.3L129.1,66.3z M128.9,62.3l-1.1,0.1c-0.1-1-0.2-2-0.3-3l1.1-0.2
		C128.8,60.2,128.9,61.2,128.9,62.3z M128.5,58l-1.1,0.2c-0.1-0.9-0.3-1.8-0.5-2.7l1.1-0.2C128.2,56.1,128.3,57,128.5,58L128.5,58z
		 M127.8,54l-1.1,0.2c-0.2-0.8-0.4-1.6-0.6-2.4l1.1-0.3C127.4,52.3,127.6,53.1,127.8,54z M126.9,50.3l-1.1,0.3
		c-0.2-0.9-0.5-1.8-0.8-2.6l1.1-0.4C126.3,48.5,126.6,49.4,126.9,50.3L126.9,50.3z M125.7,46.4l-1.1,0.4c-0.3-0.9-0.6-1.7-1-2.6
		l1.1-0.5C125,44.6,125.3,45.5,125.7,46.4z M124.2,42.6l-1.1,0.5c-0.4-0.8-0.7-1.7-1.1-2.5L123,40C123.4,40.9,123.8,41.7,124.2,42.6
		z M122.5,38.9l-1.1,0.5c-0.5-0.9-0.9-1.8-1.4-2.6l1-0.6C121.5,37.1,122,38,122.5,38.9L122.5,38.9z M120.4,35.1l-1,0.6
		c-0.5-0.8-1-1.6-1.5-2.3l1-0.7C119.4,33.5,119.9,34.3,120.4,35.1z M118.2,31.7l-1,0.7c-0.5-0.7-1-1.4-1.5-2l0.9-0.7
		C117.2,30.3,117.7,31,118.2,31.7z M115.9,28.6l-0.9,0.7c-0.6-0.7-1.1-1.4-1.7-2.1l0.9-0.8C114.8,27.2,115.4,27.9,115.9,28.6z
		 M111.4,23.5c0.7,0.7,1.3,1.4,1.9,2.1l-0.9,0.8c-0.6-0.7-1.2-1.4-1.9-2L111.4,23.5z M108.4,20.7c0.7,0.6,1.4,1.3,2.1,1.9l-0.8,0.8
		c-0.7-0.6-1.3-1.3-2-1.9C107.7,21.6,108.4,20.7,108.4,20.7z M105.1,17.9c0.8,0.6,1.6,1.3,2.4,1.9l-0.8,0.9
		c-0.8-0.7-1.5-1.3-2.3-1.9L105.1,17.9z M101.9,15.5c0.8,0.5,1.5,1.1,2.3,1.6l-0.7,1c-0.7-0.5-1.5-1.1-2.2-1.6L101.9,15.5
		L101.9,15.5z M98.6,13.5c0.7,0.4,1.5,0.9,2.2,1.4l-0.7,1c-0.7-0.5-1.4-0.9-2.1-1.3L98.6,13.5L98.6,13.5z M95.1,11.5
		c0.8,0.4,1.7,0.9,2.5,1.3l-0.6,1c-0.8-0.5-1.6-0.9-2.4-1.3C94.5,12.6,95.1,11.5,95.1,11.5z M91.4,9.8c0.9,0.4,1.7,0.8,2.6,1.2
		L93.4,12c-0.8-0.4-1.7-0.8-2.5-1.1C90.9,10.9,91.4,9.8,91.4,9.8z M87.6,8.3c0.9,0.3,1.8,0.6,2.6,1l-0.5,1.1c-0.8-0.3-1.7-0.7-2.6-1
		L87.6,8.3L87.6,8.3z M83.4,7.1c1,0.3,2,0.6,2.9,0.9L86,9c-0.9-0.3-1.9-0.6-2.9-0.9C83.2,8.2,83.4,7.1,83.4,7.1z M79.5,6.1
		c0.9,0.2,1.8,0.4,2.8,0.6L82,7.9c-0.9-0.2-1.8-0.4-2.7-0.6L79.5,6.1z M75.7,5.5c0.9,0.1,1.7,0.3,2.5,0.4L78.1,7
		c-0.8-0.1-1.6-0.3-2.5-0.4L75.7,5.5z M71.7,5.1c0.9,0.1,1.9,0.2,2.8,0.3l-0.2,1.1c-0.9-0.1-1.8-0.2-2.7-0.3L71.7,5.1z M67.6,4.9
		c0.9,0,1.9,0,2.8,0.1l-0.1,1.1C69.5,6.1,68.5,6,67.6,6L67.6,4.9L67.6,4.9L67.6,4.9z M67,7.2c24.3,0,45.2,14.6,54.6,35.4H12.4
		C21.8,21.8,42.7,7.2,67,7.2L67,7.2z M103.2,62.1h-2.9L100,63h1v1.9h-4.6v-2.1h1l2.5-6.1h-1v-2.1h4l3.4,8.3h1v2.1h-4.8V63h1
		L103.2,62.1L103.2,62.1z M94.1,56.7v6h1v2.1h-4.6v-2.1h1v-6h-1v1.3h-2v-3.6h8.7v3.6h-2v-1.3L94.1,56.7L94.1,56.7z M85.4,61.4
		c-0.1-0.1-0.2-0.2-0.4-0.3c-0.2-0.1-0.4-0.2-0.6-0.3c-0.2-0.1-0.5-0.2-0.7-0.2c-0.3-0.1-0.7-0.3-1-0.4c-0.3-0.2-0.6-0.4-0.9-0.6
		c-0.3-0.3-0.5-0.6-0.6-0.9c-0.2-0.4-0.2-0.7-0.2-1.1c0-0.4,0.1-0.8,0.3-1.2c0.2-0.4,0.4-0.7,0.7-1c0.3-0.3,0.6-0.5,1-0.7
		c0.4-0.2,0.8-0.3,1.3-0.3c0.3,0,0.6,0,0.9,0.1s0.5,0.3,0.8,0.5v-0.4h1.9v3h-2.3c0-0.3-0.1-0.6-0.3-0.8c-0.2-0.2-0.4-0.3-0.7-0.3
		c-0.3,0-0.5,0.1-0.7,0.2c-0.2,0.2-0.3,0.4-0.3,0.6c0,0.3,0.1,0.5,0.3,0.7c0.2,0.2,0.5,0.3,1,0.4c0.7,0.2,1.2,0.4,1.6,0.6
		c0.4,0.2,0.7,0.5,1,0.7c0.4,0.5,0.7,1.2,0.7,1.9c0,0.5-0.1,0.9-0.3,1.3c-0.2,0.4-0.4,0.7-0.7,1c-0.3,0.3-0.7,0.5-1.1,0.7
		c-0.4,0.2-0.9,0.2-1.3,0.2c-0.4,0-0.7-0.1-1-0.2c-0.3-0.1-0.6-0.3-0.8-0.5v0.5h-2v-3.3h2.3c0,0.5,0.1,0.8,0.3,1
		c0.2,0.2,0.5,0.3,0.8,0.3c0.3,0,0.6-0.1,0.8-0.3c0.2-0.2,0.3-0.4,0.3-0.7C85.6,61.7,85.5,61.5,85.4,61.4L85.4,61.4z M72.7,62.1
		h-2.9L69.5,63h1v1.8h-4.6v-2.1h1l2.5-6.1h-1v-2.1h4l3.4,8.3h1v2.1H72V63h1C73,63,72.7,62.1,72.7,62.1z M59.7,62.7v2.1h-4.6v-2.1h1
		v-6.1h-1v-2.1h3.3l4.1,5.8v-3.7h-1v-2.1h4.6v2.1h-1v8.3h-2.3l-4-5.7v3.5L59.7,62.7L59.7,62.7L59.7,62.7z M50.6,62.1h-2.9L47.4,63h1
		v1.8h-4.6v-2.1h1l2.5-6.1h-1v-2.1h4l3.4,8.3h1v2.1h-4.8V63h1L50.6,62.1L50.6,62.1z M43.4,62.7v2.1h-4.6v-2.1h1v-6.1h-1v-2.1h4.6
		v2.1h-1v6.1L43.4,62.7L43.4,62.7z M27.9,56.6v-2.2h5.3c0.7,0,1.3,0.1,1.9,0.4c0.6,0.2,1.1,0.6,1.5,1.1c0.4,0.5,0.8,1,1,1.6
		s0.4,1.3,0.4,2.1c0,0.8-0.1,1.5-0.4,2.2c-0.2,0.6-0.6,1.2-1,1.6c-0.4,0.5-1,0.8-1.5,1c-0.6,0.2-1.2,0.4-1.9,0.4h-5.3v-2.1h1v-6.1
		C28.9,56.6,27.9,56.6,27.9,56.6z M20.7,62.7v2.1h-4.6v-2.1h1v-6.1h-1v-2.1h3.3l4.1,5.8v-3.7h-1v-2.1h4.6v2.1h-1v8.3h-2.3l-4-5.7
		v3.5L20.7,62.7L20.7,62.7L20.7,62.7z M15,62.7v2.1h-4.6v-2.1h1v-6.1h-1v-2.1H15v2.1h-1v6.1C14,62.7,15,62.7,15,62.7z M66.4,4.9V6
		c-0.9,0-1.8,0-2.7,0.1L63.6,5C64.5,4.9,65.4,4.9,66.4,4.9L66.4,4.9z M62.3,5.1l0.1,1.1c-1,0.1-2,0.2-3,0.3l-0.2-1.1
		C60.3,5.2,61.3,5.1,62.3,5.1z M58,5.5l0.2,1.1c-0.9,0.1-1.8,0.3-2.7,0.5L55.3,6C56.2,5.8,57.1,5.7,58,5.5z M54,6.2l0.2,1.1
		c-0.8,0.2-1.6,0.4-2.4,0.6l-0.3-1.1C52.4,6.6,53.2,6.4,54,6.2L54,6.2z M50.3,7.1l0.3,1.1c-0.9,0.2-1.8,0.5-2.6,0.8l-0.4-1.1
		C48.5,7.6,49.4,7.4,50.3,7.1z M46.4,8.3l0.4,1.1c-0.9,0.3-1.7,0.6-2.6,1l-0.5-1.1C44.7,9,45.6,8.6,46.4,8.3z M42.6,9.8l0.5,1.1
		c-0.8,0.4-1.7,0.7-2.5,1.1L40.1,11C40.9,10.6,41.8,10.2,42.6,9.8z M39,11.5l0.5,1.1c-0.9,0.5-1.8,0.9-2.6,1.4l-0.6-1
		C37.1,12.5,38,12,39,11.5z M35.2,13.6l0.6,1c-0.8,0.5-1.6,1-2.3,1.5l-0.7-1C33.6,14.6,34.4,14.1,35.2,13.6z M31.8,15.8l0.7,1
		c-0.7,0.5-1.4,1-2,1.5l-0.7-1C30.4,16.8,31,16.3,31.8,15.8z M28.7,18l0.7,1c-0.7,0.6-1.4,1.1-2.1,1.7l-0.8-0.9
		C27.2,19.2,27.9,18.6,28.7,18z M25.6,20.7l0.8,0.9c-0.7,0.6-1.4,1.2-2,1.9l-0.9-0.9C24.2,21.9,24.9,21.3,25.6,20.7z M22.6,23.5
		l0.9,0.9c-0.6,0.7-1.3,1.3-1.9,2l-0.9-0.8C21.3,24.8,22,24.1,22.6,23.5z M19.9,26.5l0.9,0.8c-0.7,0.8-1.3,1.5-1.9,2.3l-1-0.7
		C18.5,28,19.2,27.2,19.9,26.5z M17.2,29.8l1,0.7c-0.5,0.7-1.1,1.5-1.6,2.2l-1-0.7C16.1,31.3,16.6,30.6,17.2,29.8z M14.8,33.1l1,0.7
		c-0.5,0.7-0.9,1.4-1.3,2.1l-1-0.6C13.9,34.6,14.4,33.9,14.8,33.1z M12.9,36.4l1,0.6c-0.4,0.8-0.9,1.6-1.3,2.4l-1.1-0.5
		C12,38.1,12.4,37.2,12.9,36.4z M11,40l1.1,0.5c-0.4,0.8-0.8,1.7-1.1,2.5l-1.1-0.5C10.2,41.7,10.6,40.9,11,40z M9.3,43.7l1.1,0.5
		c-0.3,0.8-0.7,1.7-1,2.6l-1.1-0.4C8.7,45.5,9,44.6,9.3,43.7z M7.9,47.5l1.1,0.4c-0.3,0.9-0.6,1.9-0.9,2.9l-1.1-0.3
		C7.3,49.5,7.6,48.5,7.9,47.5L7.9,47.5z M6.8,51.7L7.9,52c-0.2,0.9-0.4,1.8-0.6,2.7l-1.1-0.2C6.3,53.5,6.5,52.6,6.8,51.7L6.8,51.7z
		 M5.9,55.7L7,55.9c-0.2,0.8-0.3,1.6-0.4,2.5l-1.1-0.2C5.6,57.3,5.7,56.5,5.9,55.7z M5.3,59.4l1.1,0.2c-0.1,0.9-0.2,1.8-0.3,2.7
		l-1.1-0.1C5.1,61.3,5.2,60.4,5.3,59.4L5.3,59.4z M5,63.5l1.1,0.1C6.1,64.5,6,65.4,6,66.3H4.9C4.9,65.4,4.9,64.4,5,63.5z M4.9,67.5
		H6c0,0.9,0,1.8,0.1,2.7L5,70.4C4.9,69.4,4.9,68.5,4.9,67.5z M5.1,71.6l1.1-0.1c0.1,1,0.2,2,0.3,3l-1.1,0.2
		C5.2,73.6,5.1,72.6,5.1,71.6z M5.5,75.9l1.1-0.2c0.1,0.9,0.3,1.8,0.5,2.7L6,78.7C5.8,77.7,5.7,76.8,5.5,75.9L5.5,75.9z M6.2,79.9
		l1.1-0.2c0.2,0.8,0.4,1.6,0.6,2.4l-1.1,0.3C6.6,81.5,6.4,80.7,6.2,79.9L6.2,79.9z M7.1,83.6l1.1-0.3C8.5,84.2,8.8,85,9,85.9
		l-1.1,0.4C7.6,85.4,7.4,84.5,7.1,83.6z M8.3,87.5l1.1-0.4c0.3,0.9,0.6,1.7,1,2.6l-1.1,0.5C9,89.2,8.6,88.3,8.3,87.5z M9.8,91.3
		l1.1-0.5c0.4,0.8,0.7,1.7,1.1,2.5L11,93.8C10.6,93,10.2,92.1,9.8,91.3z M44.2,123.4c0.8,0.3,1.7,0.7,2.6,1l-0.4,1.1
		c-0.9-0.3-1.8-0.6-2.6-1C43.8,124.5,44.2,123.4,44.2,123.4z M40.6,121.8c0.8,0.4,1.7,0.8,2.5,1.1l-0.5,1.1
		c-0.9-0.4-1.7-0.8-2.6-1.2L40.6,121.8z M37,120c0.8,0.4,1.6,0.9,2.4,1.3l-0.5,1.1c-0.8-0.4-1.7-0.9-2.5-1.3C36.4,121,37,120,37,120
		z M33.8,118c0.7,0.5,1.4,0.9,2.1,1.3l-0.6,1c-0.7-0.4-1.5-0.9-2.2-1.4L33.8,118z M30.6,115.7c0.7,0.5,1.5,1.1,2.2,1.6l-0.7,1
		c-0.8-0.5-1.5-1.1-2.3-1.6C29.8,116.7,30.6,115.7,30.6,115.7z M27.3,113.1c0.8,0.7,1.5,1.3,2.3,1.9l-0.7,1
		c-0.8-0.6-1.6-1.3-2.4-1.9L27.3,113.1z M24.3,110.4c0.7,0.6,1.3,1.3,2,1.9l-0.8,0.9c-0.7-0.6-1.4-1.3-2.1-1.9L24.3,110.4z
		 M23.5,109.5l-0.8,0.8c-0.7-0.7-1.3-1.4-1.9-2.1l0.9-0.8C22.2,108.2,22.8,108.9,23.5,109.5L23.5,109.5z M20.8,106.6l-0.9,0.8
		c-0.6-0.7-1.2-1.4-1.8-2.2l1-0.7C19.6,105.2,20.2,105.9,20.8,106.6L20.8,106.6z M18.3,103.5l-1,0.7c-0.5-0.7-1-1.4-1.5-2.1l1-0.7
		C17.3,102.1,17.8,102.8,18.3,103.5z M16.1,100.4l-1,0.7c-0.5-0.8-1-1.6-1.5-2.4l1-0.6C15.1,98.9,15.6,99.7,16.1,100.4L16.1,100.4z
		 M12.6,94.4c0.5,0.9,0.9,1.8,1.4,2.6l-1,0.6c-0.5-0.9-1-1.8-1.5-2.7L12.6,94.4L12.6,94.4z M23.8,79.3h-5.9v-2.3h1.2l-0.4-1.1h-3.6
		l-0.3,1.1h1.2v2.3h-5.7v-2.6h1.2l3.1-7.5h-1.2v-2.6h4.9l4.1,10.2h1.2C23.8,76.7,23.8,79.3,23.8,79.3z M36.4,75.6
		c-0.3,0.8-0.7,1.4-1.3,2c-0.5,0.6-1.2,1-1.9,1.3c-0.7,0.3-1.5,0.5-2.3,0.4h-6.5v-2.6h1.2v-7.5h-1.2v-2.7h6.6c0.9,0,1.7,0.2,2.4,0.5
		c0.7,0.3,1.3,0.7,1.9,1.3c0.5,0.6,1,1.3,1.2,2c0.3,0.8,0.4,1.6,0.4,2.6C36.8,73.9,36.7,74.8,36.4,75.6L36.4,75.6z M44.7,79.3h-3.5
		l-3.1-10.2h-1.2v-2.6h5.6v2.6h-1l1.6,5.8l1.9-5.8h-1v-2.6h5.4v2.6h-1.2L44.7,79.3L44.7,79.3z M61.5,79.3h-5.8v-2.3h1.2l-0.4-1.1
		h-3.6l-0.3,1.1h1.2v2.3h-5.7v-2.6h1.2l3.1-7.5h-1.2v-2.6h4.9l4.1,10.2h1.2L61.5,79.3L61.5,79.3z M75.5,69.2h-1.2v10.2h-2.9l-5-7
		v4.3h1.2v2.6h-5.6v-2.6h1.2v-7.5h-1.2v-2.6h4l5.1,7.2v-4.5h-1.2v-2.6h5.6L75.5,69.2L75.5,69.2L75.5,69.2z M83,69.3v7.4h1.2v2.6
		h-5.6v-2.6h1.2v-7.4h-1.3V71h-2.5v-4.4h10.7V71h-2.5v-1.6H83z M99.2,79.3h-5.8v-2.3h1.2l-0.4-1.1h-3.6l-0.3,1.1h1.2v2.3h-5.7v-2.6
		H87l3.1-7.5h-1.2v-2.6h4.9L98,76.7h1.2L99.2,79.3L99.2,79.3L99.2,79.3z M112.2,79.3h-2.6V78c-0.9,1.1-2.2,1.6-3.8,1.6
		c-0.9,0-1.8-0.2-2.6-0.5c-0.8-0.3-1.5-0.8-2.1-1.4c-1.3-1.3-2-3-1.9-4.7c0-0.9,0.2-1.8,0.5-2.6c0.3-0.8,0.8-1.5,1.4-2.1
		c0.6-0.6,1.3-1.1,2.1-1.4c0.8-0.3,1.7-0.5,2.5-0.5c0.7,0,1.4,0.1,1.9,0.3c0.6,0.2,1.2,0.5,1.7,0.9v-0.9h2.6v4.2h-3.5
		c-0.3-0.4-0.7-0.7-1.1-0.9c-0.4-0.2-0.9-0.3-1.5-0.3c-0.5,0-0.9,0.1-1.4,0.3c-0.4,0.2-0.8,0.4-1.1,0.7c-0.3,0.3-0.6,0.7-0.7,1.1
		c-0.2,0.4-0.3,0.9-0.3,1.4c0,0.5,0.1,1,0.3,1.4c0.2,0.4,0.4,0.8,0.8,1.1c0.3,0.3,0.7,0.6,1.1,0.7s0.9,0.3,1.4,0.3
		c0.6,0,1.1-0.1,1.6-0.4c0.5-0.3,0.9-0.7,1.2-1.2H105v-2.6h7.2L112.2,79.3C112.2,79.3,112.2,79.3,112.2,79.3z M112,56.7v6h1v2.1
		h-4.6v-2.1h1v-6h-1v1.3h-2v-3.6h8.7v3.6h-2v-1.3H112z M113.8,79.3v-2.6h1.2v-7.5h-1.2v-2.6h9.8v4.2h-3.2v-1.4h-2.2v2.3h3v2.5h-3
		v2.4h2.2v-1.4h3.2v4.2L113.8,79.3L113.8,79.3z M121.4,94.4l1.1,0.5c-0.4,0.8-0.9,1.7-1.3,2.5l-1-0.6
		C120.6,96.1,121,95.3,121.4,94.4z M119.5,97.9l1,0.6c-0.4,0.7-0.9,1.5-1.4,2.2l-1-0.7C118.6,99.3,119.1,98.6,119.5,97.9z
		 M117.5,101.1l1,0.7c-0.5,0.8-1.1,1.5-1.6,2.3l-0.9-0.7C116.4,102.6,117,101.8,117.5,101.1z M115.1,104.3l0.9,0.7
		c-0.6,0.8-1.3,1.6-2,2.4l-0.9-0.8C113.9,105.9,114.5,105.1,115.1,104.3z M87.6,125.5l-0.4-1.1c0.9-0.3,1.7-0.6,2.6-1l0.4,1.1
		C89.3,124.9,88.4,125.2,87.6,125.5z M91.4,124.1l-0.4-1.1c0.8-0.4,1.7-0.7,2.5-1.1l0.5,1.1C93.1,123.3,92.2,123.7,91.4,124.1
		L91.4,124.1z M95,122.3l-0.5-1.1c0.9-0.5,1.8-0.9,2.6-1.4l0.6,1C96.9,121.4,96,121.9,95,122.3z M98.8,120.3l-0.6-1
		c0.8-0.5,1.6-1,2.3-1.5l0.7,1C100.4,119.3,99.6,119.8,98.8,120.3z M102.2,118.1l-0.7-1c0.7-0.5,1.4-1,2-1.5l0.7,0.9
		C103.7,117.1,103,117.6,102.2,118.1z M105.3,115.8l-0.7-0.9c0.7-0.6,1.4-1.1,2.1-1.7l0.8,0.9C106.8,114.6,106.1,115.2,105.3,115.8z
		 M108.4,113.2l-0.8-0.9c0.7-0.6,1.4-1.2,2-1.9l0.8,0.8C109.8,111.9,109.1,112.6,108.4,113.2z M110.5,109.5c0.6-0.7,1.3-1.3,1.9-2
		l0.9,0.8c-0.6,0.7-1.3,1.4-1.9,2.1L110.5,109.5z"/>
	<path class="st0" d="M16,73.5h2l-1-3.2L16,73.5z M34.8,61.9c0.5-0.5,0.7-1.2,0.7-2.2c0-1-0.2-1.7-0.7-2.2c-0.4-0.5-1.1-0.7-1.8-0.7
		h-1.5v5.9H33C33.8,62.6,34.4,62.4,34.8,61.9L34.8,61.9z M91.3,73.5h2l-1-3.2C92.4,70.2,91.3,73.5,91.3,73.5z M48.3,60.1H50
		l-0.8-2.6C49.1,57.5,48.3,60.1,48.3,60.1z M30.6,69.4h-1.8v7.2h1.8c0.9,0,1.7-0.3,2.2-0.9c0.5-0.6,0.8-1.5,0.8-2.7
		s-0.3-2.1-0.8-2.7C32.3,69.7,31.5,69.4,30.6,69.4L30.6,69.4z M70.4,60.1h1.7l-0.8-2.6L70.4,60.1z M53.7,73.5h2l-1-3.2
		C54.7,70.2,53.7,73.5,53.7,73.5z M83.6,102.8c0,0-5.8-2.1-16.6-2.1c-10.7,0-16.6,2.1-16.6,2.1V136c0,0,5.5-2.2,16.6-2.2
		s16.6,2.2,16.6,2.2V102.8z M58,121.8c-0.5-0.5-1.6-0.8-2.1-1.2l0.5-0.3c0.1-0.1,0.1-0.2,0.1-0.3c-0.2-0.8-2-2.3-2.7-2.9
		c-0.3-0.2-0.3-0.2-0.7-0.5c1.1,0.2,2.3,0.3,3.2,0.1c0.2,0,0.3-0.3,0.5-0.3c1.3-0.3,2.5,0.8,3-0.5c0.1-0.4,0.1-0.8,0.1-1.1
		c0-0.2,0-0.4-0.1-0.7c-0.2-0.6-0.2-0.6-0.5-1.3c0.3,0.3,0.9,0.3,1.2,0.2c0.1,0,0.4-0.3,0.8-0.8c1.2-1.7,1.7-3.5,2.5-5.6
		c0.4-1.1,0-2.2,0.1-3.1c0,0,0,0,0.1,0c0.6,1.3,1.9,2.9,2.9,3.8c0.5,0.5,0.7,1,1.4,1.3c0.3,0.1,0.7,0.1,0.9-0.1
		c0.1-0.1,0.2-0.1,0.3-0.1c0,1.3,1.3,3.2,2.1,3.8c0.2,0.2,0.5,0.3,0.7,0.5c0.2,0.1,0.3,0.2,0.5,0.2c1.8,0,3-1.1,4-2
		c0.4-0.3,0.8-1,1.4-1.1c-0.3,0.6-0.6,1.2-0.8,1.9c-0.4,1-0.1,1.5,0,2.1c0.1,0.5-0.3,1.3-0.3,1.7c0,0.4-0.2,1.5-0.1,2.2
		c0,0.2,0.1,0.4,0.3,0.5c0,0,0.1,0,0.1,0.1c0,0.1,0.2,0,0.2,0.1c-0.2,0.3-0.3,0.7-0.1,0.9c0.5,0.5,1.8,1.3,2.3,1.6v0.1
		c-0.9,0.6-3.2,0.7-3.8,1.8c-0.1,0.2-0.1,0.4-0.1,0.6c0.1,0.1,0.1,0.3,0.1,0.5c-0.6-0.1-1.2-0.3-1.7-0.1c-0.4,0.1-0.7,0.5-0.8,1.2
		c-1.1-0.7-2-2.2-3.5-2.6c-0.1,0-0.2,0-0.3,0c-0.1,0-0.2,0.1-0.3,0.1c-0.2,0.1-0.3,0.3-0.2,0.6c0,0,0,0,0,0c0.2,0.5,0.4,1.6,0.6,2.1
		c0.6,1.2,1,1.9,2,2.8c0.8,0.7,2.2,1.6,3.3,2.1c0.4,0.2,1.2,0.2,1.5,0.5c0.1,0.1,0.1,0.1,0,0.2c-0.3,0.3-0.2,0.9-0.6,1
		c-0.1,0-0.1,0-0.2,0.1c-0.1,0-0.1,0-0.2,0c-0.5-0.6-1.2-1.1-1.8-1.6c-1.3-1.1-3.3-2.3-4.1-3.6c-0.7-1.2-0.9-3-2.4-3.5
		c-0.2-0.1-0.3,0-0.5,0c-0.4,0.2-0.9,0.3-1.2,0.6c-0.7,0.8-0.7,2.2-1.3,3.1c-0.1,0.2-0.2,0.5-0.2,0.5c-0.1-0.3,0-0.6-0.4-0.7
		c-0.4,0.5-1,1.2-1.6,1.3v0c0-0.2,0-0.4-0.1-0.6c-0.1-0.3,0-0.4-0.7-0.5c-1-0.8-4.2,0.3-4.6,0.2C58.7,126.1,59.2,123.1,58,121.8
		C58,121.8,58,121.8,58,121.8z"/>
</g>
</svg>
