<svg xmlns="http://www.w3.org/2000/svg" width="68" height="68" fill="none" viewBox="0 0 68 68"><path fill="#16325C" d="M26.963 38.63H16.057a.727.727 0 1 1 0-1.455h10.906a.727.727 0 1 1 0 1.455ZM29.872 45.17h-1.456a.727.727 0 1 1 0-1.456h1.456a.727.727 0 1 1 0 1.456ZM25.365 45.17h-9.308a.727.727 0 1 1 0-1.456h9.308a.727.727 0 1 1 0 1.456ZM35.689 51.707h-1.34a.727.727 0 1 1 0-1.456h1.34a.727.727 0 1 1 0 1.456ZM31.15 51.707H16.055a.727.727 0 1 1 0-1.456H31.15a.727.727 0 1 1 0 1.456Z"/><path fill="#16325C" d="M45.915 58.265H10.92a3.637 3.637 0 0 1-3.634-3.634V6.101a3.639 3.639 0 0 1 3.634-3.633h34.993a3.637 3.637 0 0 1 3.634 3.634v10.654a.727.727 0 1 1-1.455 0l.002-10.654c0-1.2-.977-2.181-2.18-2.181l-34.994.003c-1.2 0-2.18.977-2.18 2.18v48.53c0 1.2.977 2.18 2.18 2.18h34.993c1.204 0 2.181-.977 2.181-2.18a.727.727 0 1 1 1.456 0 3.64 3.64 0 0 1-3.634 3.631Z"/><path fill="#16325C" d="M49.664 20.637c0 1.357-2.035 1.357-2.035 0 0-1.355 2.035-1.355 2.035 0ZM38.627 65.53H3.634A3.637 3.637 0 0 1 0 61.898v-48.53a3.639 3.639 0 0 1 3.634-3.633h.892a.727.727 0 1 1 0 1.456h-.892c-1.2 0-2.181.977-2.181 2.18v48.527c0 1.2.978 2.181 2.18 2.181l34.994-.003c1.203 0 2.181-.977 2.181-2.18v-.874a.727.727 0 1 1 1.456 0l-.003.876a3.637 3.637 0 0 1-3.634 3.631Z"/><path fill="#16325C" d="M39.326 13.586h-5.02l.002-1.816a2.763 2.763 0 0 0-2.76-2.76H25.29a2.763 2.763 0 0 0-2.76 2.76v1.816h-5.02c-1.2 0-2.18.978-2.18 2.181v14.148c0 1.2.977 2.18 2.18 2.18H30.84a.727.727 0 1 0 0-1.455H17.51a.729.729 0 0 1-.728-.728v-8.784h8.29v1.503c0 1.2.977 2.18 2.18 2.18h2.33c1.2 0 2.181-.977 2.181-2.18v-1.503h8.29v1.4a.727.727 0 1 0 1.456 0v-6.76a2.186 2.186 0 0 0-2.183-2.182ZM23.98 11.77c0-.72.587-1.307 1.307-1.307h6.258c.72 0 1.307.587 1.307 1.307v1.816H23.98V11.77Zm6.327 10.861a.729.729 0 0 1-.728.728h-2.33a.729.729 0 0 1-.727-.728v-2.956c0-.401.326-.728.728-.728h2.33c.4 0 .727.327.727.728v2.956Zm9.746-2.956h-8.29c0-1.2-.978-2.18-2.18-2.18h-2.33c-1.201 0-2.181.977-2.181 2.18h-8.29v-3.908c0-.4.327-.727.728-.727h21.815c.401 0 .728.326.728.728v3.907Z"/><path fill="#16325C" d="m66.72 51.779-7.183-7.159c1.041-2 1.628-4.271 1.628-6.675 0-8.011-6.523-14.53-14.543-14.53S32.08 29.934 32.08 37.946s6.524 14.53 14.543 14.53c2.42 0 4.705-.595 6.715-1.645l7.175 7.151c1.71 1.706 4.505 1.708 6.208-.002 1.708-1.634 1.705-4.57 0-6.2ZM33.534 37.942c0-7.211 5.873-13.076 13.09-13.076s13.09 5.865 13.09 13.076-5.873 13.076-13.09 13.076c-7.22 0-13.09-5.865-13.09-13.076Zm32.17 18.995-.01.01a2.947 2.947 0 0 1-4.155 0l-6.906-6.882a14.661 14.661 0 0 0 4.146-4.151l6.917 6.893c1.134 1.08 1.137 3.052.008 4.13Z"/><path fill="#16325C" d="M52.004 46.415a.727.727 0 0 1-.728-.727v-6.33a1.02 1.02 0 0 0-1.017-1.018h-7.275a1.02 1.02 0 0 0-1.018 1.018v6.33a.727.727 0 1 1-1.455 0v-6.33a2.472 2.472 0 0 1 2.47-2.47h7.275a2.472 2.472 0 0 1 2.47 2.47v6.33a.721.721 0 0 1-.722.727ZM46.622 35.257a3.638 3.638 0 0 1-3.637-3.634 3.64 3.64 0 0 1 3.637-3.634 3.638 3.638 0 0 1 3.636 3.634 3.64 3.64 0 0 1-3.636 3.634Zm0-5.812c-1.203 0-2.181.977-2.181 2.18 0 1.201.98 2.181 2.18 2.181a2.18 2.18 0 1 0 0-4.361Z"/></svg>