<svg xmlns="http://www.w3.org/2000/svg" viewBox="0 0 20 19">
  <path d="M4.793 18.611V6.316H.635v12.295h4.158zM2.715 4.636c1.45 0 2.351-.942 2.351-2.123C5.04 1.306 4.166.389 2.742.389 1.32.389.39 1.308.39 2.513c0 1.18.902 2.123 2.298 2.123h.028zm8.5 13.975v-6.866c0-.368.027-.736.138-.998.3-.733.983-1.494 2.133-1.494 1.505 0 2.106 1.127 2.106 2.78v6.578h4.158V11.56c0-3.778-2.05-5.534-4.787-5.534-2.206 0-3.195 1.191-3.749 2.03v.043h-.028l.028-.043v-1.74H7.058c.052 1.154 0 12.295 0 12.295h4.156z"/>
</svg>
