<svg xmlns="http://www.w3.org/2000/svg" viewBox="0 0 301 56">
  <path d="M26.4.5c16.8 0 25.9 3.2 25.9 3.2v51.8c-.6-.2-9.2-3.4-25.9-3.4C9.1 52.1.5 55.5.5 55.5V3.7h.2c1-.4 10-3.2 25.7-3.2zm48.4 31.4v2.8h-2.3v11.8c0 3.4 2 4.8 4.2 4.8 2.3 0 4.3-1.5 4.3-4.8V34.7h-2.4v-2.8h8.3v2.8h-2.6V47c0 4.7-3.1 7.7-7.7 7.7-4.4 0-7.5-2.9-7.5-7.8V34.7h-2.6v-2.8h8.3zm19.4 0L106 48.3V34.7h-2.7v-2.8h8.6v2.8h-2.7v19.2H106L94.4 37.7v13.5H97V54h-8.6v-2.8H91V34.7h-2.6v-2.8h5.8zm144.6 0v2.8h-2.3l4.5 8.8 4.4-8.8H243v-2.8h8.1v2.8h-2.4l-6 11.7v4.8h2.6V54h-8.5v-2.8h2.6v-4.8L233 34.7h-2.4v-2.8h8.2zm-116.6 0v2.8h-2.6v16.4h2.6v2.8h-8.6v-2.8h2.6V34.7h-2.6v-2.8h8.6zm9.9 0v2.8h-2.4l5.4 14.7 5.6-14.7h-2.4v-2.8h8.2v2.8h-2.4l-7.3 19.2h-3.6l-7-19.2h-2.5v-2.8h8.4zm97.7 0v6.5H227v-3.5h-3.8v16.3h2.6V54h-8.4v-2.8h2.6V34.9h-3.9v3.5h-2.7v-6.5h16.4zm-18.8 0v2.8h-2.6v16.4h2.6v2.8h-8.6v-2.8h2.6V34.7h-2.6v-2.8h8.6zm-17.9-.8c1.9 0 3.3.7 4.2 2.1v-1.5h2.5v5.5h-2.9c-.2-2.2-1.7-3.3-3.4-3.3-2.1 0-3.5 1.5-3.5 3.3 0 2.5 2 3.1 4 3.6l.8.2c.4.1.9.2 1.3.4 3.1 1.1 4.8 3.1 4.8 5.9 0 3.8-3 6.6-6.7 6.6-2 0-3.4-.8-4.6-2.2v1.7H187v-6.2h3c.2 2.6 1.7 3.9 3.9 3.9 2.3 0 3.7-1.6 3.7-3.6 0-2.9-2.5-3.3-5.8-4.2-2.9-.8-5-3-5-5.9-.2-3.6 2.8-6.3 6.3-6.3zm-16.7.8c5.4 0 8 3.4 8 7.3 0 3.2-2 6.4-6 6.7l4 5.1h2.7v2.8h-4.8l-7.1-9.9h2.4c3.7 0 5.4-2.1 5.4-4.6 0-2.2-1.3-4.5-4.8-4.5h-4v16.3h2.2v2.8h-8.2v-2.8h2.6V34.7h-2.6v-2.8h10.2zm-11.8 0v6.2h-3.3v-3.2h-6.7v6.6h7.3v2.6h-7.3V51h6.7v-3.2h3.3V54h-15.7v-2.8h2.6V34.7h-2.6v-2.8h15.7zM21.8 4.6h-.1c0 1.4.5 3.2-.1 4.9-1.2 3.3-2.6 7.3-4.6 9.9-.1.1-.2.2-.4.2-.7.1-1.6.2-2.1-.4-.1.1-.1.1-.3.1.2.8.7 1.3.9 2 .1.4.1.7.1 1.1.1.6.1 1.2-.1 1.8-.7 2.1-2.6.4-4.6.9-.2.1-.5.4-.8.5-1.4.4-3.3.1-5.1-.1.7.6.6.5 1.1.8 1.1.8 3.9 3.2 4.2 4.5.1.1.1.3-.1.4l-.8.3c.8.7 2.5 1.1 3.3 1.8 1.9 2 1.2 6.7-1.2 8.2.6.2 5.6-1.5 7.2-.3 1 .2.9.3 1 .8.1.3.1.6.1.9 1-.2 2-1.3 2.5-2 .5.2.5.6.6 1.1.1 0 .2-.4.4-.8.9-1.5.9-3.6 2-4.8.4-.5 1.2-.6 1.8-.9.2-.1.5-.1.7-.1 2.4.8 2.7 3.6 3.8 5.4 1.3 2.2 4.4 4 6.5 5.7.9.7 2.1 1.6 2.9 2.5.1.1.2.1.2.1.1 0 .2-.1.2 0 .7-.3.6-1.1 1.1-1.7.1-.1.1-.2 0-.3-.5-.4-1.7-.5-2.4-.8-1.6-.8-3.8-2.1-5.1-3.2-1.6-1.3-2.2-2.5-3.1-4.3-.4-.8-.6-2.4-1-3.3-.2-.3 0-.7.3-.9.1-.1.3-.1.4-.2.2-.1.3-.1.5-.1 2.4.6 3.8 3 5.5 4 .1-1.1.5-1.7 1.2-1.9.7-.4 1.7 0 2.6.1 0-.3-.1-.5-.2-.7-.1-.3-.1-.7.1-1 1-1.7 4.5-1.9 6-2.8v-.1c-.8-.5-2.8-1.7-3.6-2.5-.3-.3-.1-1 .1-1.5 0-.1-.3 0-.4-.1-.1 0-.1-.1-.2-.1-.3-.2-.5-.5-.5-.8-.1-1.1.1-2.9.1-3.5 0-.6.6-1.8.4-2.7-.2-1-.7-1.8-.1-3.3.4-1 .9-1.9 1.3-2.9-1 .1-1.5 1.1-2.2 1.6-1.7 1.3-3.5 3.2-6.3 3.1-.3 0-.6-.1-.8-.3-.3-.3-.7-.4-1.1-.7-1.2-1.1-3.3-4-3.3-6-.2 0-.4.1-.5.2-.4.3-1 .4-1.5.2-1-.4-1.4-1.3-2.2-2-1.4-1.5-3.3-4-4.3-6zm144.7.6 11.8 16.4V8h-2.7V5.2h8.6V8h-2.7v19.2h-3.2L166.7 11v13.5h2.6v2.8h-8.6v-2.8h2.6V8h-2.6V5.2h5.8zm80.6 0v6.5h-2.8V8.2h-3.8v16.3h2.6v2.8h-8.4v-2.8h2.6V8.2h-3.9v3.5h-2.7V5.2h16.4zm11.3 0 8.1 19.2h2.5v2.8h-8.7v-2.8h2.6l-1.7-3.9h-8.9l-1.6 3.9h2.5v2.8h-8.5v-2.8h2.5L254.4 8h-2.7V5.2h6.7zm-182.5 0V8h-2.6v16.4h2.6v2.8h-8.6v-2.8h2.6V8h-2.6V5.2h8.6zm207.3 0v6.5h-2.8V8.2h-3.8v16.3h2.6v2.8h-8.4v-2.8h2.6V8.2h-3.9v3.5h-2.7V5.2h16.4zm-200 0L95 21.6V8h-2.7V5.2h8.6V8h-2.7v19.2H95L83.4 11v13.5H86v2.8h-8.6v-2.8H80V8h-2.6V5.2h5.8zm139.7-.8c1.9 0 3.3.7 4.2 2.1V5h2.5v5.5h-2.9c-.2-2.2-1.7-3.3-3.4-3.3-2.1 0-3.5 1.5-3.5 3.3 0 2.6 2.2 3.1 4.4 3.7l.4.1c.4.1.9.2 1.3.4 3.1 1.1 4.8 3.1 4.8 5.9 0 3.8-3 6.6-6.7 6.6-2 0-3.4-.8-4.6-2.2v1.7h-2.6v-6.2h3c.2 2.6 1.7 3.9 3.9 3.9 2.3 0 3.7-1.6 3.7-3.6 0-2.9-2.5-3.3-5.8-4.2-2.9-.8-5-3-5-5.9-.1-3.6 2.8-6.3 6.3-6.3zm-109.7.8c6.6 0 10.6 5.1 10.6 11 0 5.7-4 11-10.6 11h-10.6v-2.8h2.6V8h-2.6V5.2h10.6zm187.3 0v6.2h-3.3V8.2h-6.7v6.6h7.3v2.6h-7.3v6.9h6.7V21h3.3v6.2h-15.7v-2.8h2.6V8h-2.6V5.2h15.7zM134 5.2V8h-2.6v16.4h2.6v2.8h-8.6v-2.8h2.6V8h-2.6V5.2h8.6zm14.5 0 8.1 19.2h2.5v2.8h-8.7v-2.8h2.6l-1.7-3.9h-8.9l-1.6 3.9h2.5v2.8h-8.5v-2.8h2.5L144.5 8h-2.7V5.2h6.7zm47.9 0 8.1 19.2h2.5v2.8h-8.7v-2.8h2.6l-1.7-3.9h-8.9l-1.6 3.9h2.5v2.8h-8.5v-2.8h2.5L192.4 8h-2.7V5.2h6.7zm-83.6 3h-4.2v16.1h4.2c5.5 0 7.7-4.2 7.7-8.1-.1-4-2.4-8-7.7-8zm34.1.8-3.6 8.9h7.2L146.9 9zm47.9 0-3.6 8.9h7.2L194.8 9zm62.1 0-3.6 8.9h7.2L256.9 9z"/>
</svg>
