<svg xmlns="http://www.w3.org/2000/svg" width="100pt" height="100pt" fill="#16325C" viewBox="0 0 100 100"><path d="M85.539 79.852A18.893 18.893 0 0 1 72.91 75c-4.64-4.328-7-11.12-6.86-20.19v-14l-5.57 7.69a.863.863 0 0 1-1.191.2.848.848 0 0 1-.2-1.18l7.071-9.941a.508.508 0 0 1 .07-.09l.059-.059a.816.816 0 0 1 .57-.218.852.852 0 0 1 .63.277l.07.09 7.058 9.941h.004c.133.184.187.41.148.633a.854.854 0 0 1-1.531.348l-5.52-7.77v14c-.078 8.57 2 14.93 6.301 18.922v-.004a17.43 17.43 0 0 0 12.102 4.442.87.87 0 0 1 .91.789.861.861 0 0 1-.78.91c-.032.04-.25.063-.712.063zm-35.539 0a.854.854 0 0 1-.852-.852V23.66l-5.53 7.782h.003a.863.863 0 0 1-1.191.199.85.85 0 0 1-.2-1.18l7.07-9.941.06-.078a.86.86 0 0 1 .629-.293.863.863 0 0 1 .55.21l.07.07.059.09 7.07 9.942a.85.85 0 0 1-.199 1.18.858.858 0 0 1-1.187-.2l-5.532-7.78V79a.855.855 0 0 1-.82.851zM27.09 75c4.64-4.328 7-11.12 6.86-20.18V40.761l5.53 7.79a.862.862 0 0 0 1.192.199.852.852 0 0 0 .2-1.18L33.8 37.629a.206.206 0 0 0-.063-.079l-.07-.078.004-.004a.816.816 0 0 0-.531-.207h-.051a.912.912 0 0 0-.512.188l-.101.11h.004a.212.212 0 0 0 0 .07l-7.07 9.941a.847.847 0 0 0-.153.633c.039.222.164.418.352.547.382.27.91.18 1.18-.2l5.53-7.769v14.051c.079 8.559-2 14.922-6.3 18.91v-.004a17.42 17.42 0 0 1-12.098 4.441.879.879 0 0 0-.91.79.858.858 0 0 0 .777.91h.742a18.906 18.906 0 0 0 12.559-4.88z"/></svg>
