<svg xmlns="http://www.w3.org/2000/svg" width="74" height="74" fill="none" viewBox="0 0 74 74"><path fill="#16325C" fill-rule="evenodd" d="M34.352 51.401a.823.823 0 0 1 1.162-1.159l6.96 6.96a2.46 2.46 0 0 0 3.478-3.477l-6.48-6.48a.821.821 0 1 1 1.162-1.162l6.96 6.954a2.46 2.46 0 0 0 3.477-3.48l-9.027-9.025a4.394 4.394 0 0 0-2.847-1.02 5.846 5.846 0 0 0-3.365.749 30.367 30.367 0 0 1-6.244 3.006c-1.743.581-3.413.856-4.495.396h-.002a5.154 5.154 0 0 1-3.033-3.683 2.165 2.165 0 0 1 .746-2.136c.752-.624 1.998-1.685 3.498-2.96a991.738 991.738 0 0 1 3.865-3.286l-10.25-.648-4.294 17.96 14.641 14.638c.963.933 2.5.922 3.449-.03a2.46 2.46 0 0 0 .029-3.45l-4.882-4.883h-.003a.823.823 0 0 1 .578-1.416c.22.003.43.095.584.254l6.96 6.96a2.46 2.46 0 0 0 3.478-3.477l-6.105-6.105Zm-14.118-37.68a.819.819 0 1 1 1.42-.82l5.498 9.524h.002a.819.819 0 0 1-1.419.821l-5.5-9.524Zm32.159-.994a.825.825 0 0 1 .497-.381.818.818 0 0 1 .922 1.197l-5.498 9.524a.819.819 0 1 1-1.422-.815l5.498-9.525h.003ZM36.179 8.915a.82.82 0 1 1 1.642 0v10.998a.82.82 0 1 1-1.642 0V8.915ZM20.304 29.328l11.675.738a225.49 225.49 0 0 1 3.628-2.995v-.003a4.853 4.853 0 0 1 5.373-.523l8.342 4.37a3.174 3.174 0 0 0 2.66.177l1.962-.717-.523-2.189h.003a.82.82 0 0 1 .607-.985l11.432-2.732a.828.828 0 0 1 .619.098.832.832 0 0 1 .367.51l5.579 23.35-.003-.003a.815.815 0 0 1-.604.986L59.986 52.14a.829.829 0 0 1-.619-.098.828.828 0 0 1-.364-.509L58.59 49.8l-5.195 2.067h-.003a4.12 4.12 0 0 1-1.78 2.838 4.108 4.108 0 0 1-3.304.561c0 .064.003.127.003.19l.002.004a4.076 4.076 0 0 1-1.2 2.9 4.076 4.076 0 0 1-2.898 1.199c-.477 0-.954-.084-1.402-.243a4.096 4.096 0 0 1-2.411 3.654 4.102 4.102 0 0 1-4.336-.599 4.104 4.104 0 0 1-6.964 2.336L15.176 50.788l-.18.752v-.003a.81.81 0 0 1-.982.607L2.578 49.409a.815.815 0 0 1-.604-.986L7.55 25.077a.832.832 0 0 1 .367-.509.828.828 0 0 1 .619-.098l11.432 2.732a.815.815 0 0 1 .607.986l-.271 1.141Zm-6.706 21.033-9.843-2.353L8.952 26.25l9.843 2.35-5.197 21.76Zm42.096-19.7c.009.029.017.055.02.084l4.238 17.74.009.035.439 1.841 9.846-2.353-5.198-21.758-9.842 2.354.491 2.058h-.003Zm-1.367 1.315L58.2 48.193l-4.934 1.962h.003a4.079 4.079 0 0 0-1.038-1.757l-9.024-9.027a6.007 6.007 0 0 0-3.926-1.495 7.514 7.514 0 0 0-4.362 1.026 28.556 28.556 0 0 1-5.853 2.813c-1.402.468-2.683.72-3.342.44h.003a3.502 3.502 0 0 1-2.064-2.507.548.548 0 0 1 .012-.298.553.553 0 0 1 .173-.24c.636-.526 1.949-1.644 3.518-2.983 2.917-2.486 6.758-5.764 9.27-7.782v.003a3.217 3.217 0 0 1 3.59-.352l8.345 4.373h-.003a4.781 4.781 0 0 0 3.975.263l1.784-.656Z" clip-rule="evenodd"/></svg>