<svg xmlns="http://www.w3.org/2000/svg" viewBox="0 0 23 23">
  <path d="M11.5.111c-3.09 0-3.48.014-4.694.068C5.592.236 4.765.427 4.04.71a5.576 5.576 0 0 0-2.017 1.314A5.59 5.59 0 0 0 .709 4.04c-.282.723-.474 1.552-.53 2.762-.054 1.217-.068 1.604-.068 4.7 0 3.092.014 3.479.068 4.693.057 1.213.248 2.04.53 2.765a5.59 5.59 0 0 0 1.314 2.017 5.558 5.558 0 0 0 2.016 1.314c.726.282 1.552.474 2.765.53 1.215.054 1.602.068 4.696.068 3.094 0 3.48-.014 4.695-.068 1.212-.057 2.042-.248 2.766-.53a5.575 5.575 0 0 0 2.016-1.314 5.593 5.593 0 0 0 1.314-2.017c.28-.725.473-1.552.53-2.765.054-1.214.068-1.601.068-4.695 0-3.094-.014-3.48-.068-4.696-.057-1.212-.25-2.04-.53-2.764a5.59 5.59 0 0 0-1.314-2.017A5.568 5.568 0 0 0 18.96.709c-.726-.282-1.555-.474-2.766-.53-1.216-.054-1.602-.068-4.697-.068h.004-.001zm-1.02 2.053h1.02c3.041 0 3.401.01 4.602.065 1.11.05 1.714.237 2.115.392.531.206.911.454 1.31.853.398.398.645.777.851 1.31.157.4.342 1.003.392 2.113.055 1.2.066 1.56.066 4.6 0 3.04-.01 3.401-.066 4.601-.05 1.11-.237 1.713-.392 2.114a3.516 3.516 0 0 1-.853 1.309 3.519 3.519 0 0 1-1.31.85c-.398.158-1.002.343-2.113.394-1.2.054-1.56.067-4.602.067-3.04 0-3.402-.013-4.602-.067-1.11-.051-1.713-.236-2.114-.393a3.528 3.528 0 0 1-1.31-.851 3.53 3.53 0 0 1-.854-1.31c-.155-.4-.342-1.004-.392-2.114-.054-1.2-.065-1.56-.065-4.603 0-3.04.011-3.4.065-4.6.052-1.11.237-1.713.393-2.115.207-.53.454-.911.853-1.31a3.519 3.519 0 0 1 1.31-.85c.401-.158 1.003-.343 2.114-.394 1.05-.048 1.458-.062 3.58-.064v.003zm7.1 1.89a1.367 1.367 0 1 0 0 2.734 1.367 1.367 0 0 0 0-2.733zm-6.079 1.598a5.85 5.85 0 1 0-.182 11.698A5.85 5.85 0 0 0 11.5 5.652zm0 2.051a3.797 3.797 0 1 1 0 7.594 3.797 3.797 0 0 1 0-7.594z"/>
</svg>
