<svg xmlns="http://www.w3.org/2000/svg" viewBox="0 0 153 126">
  <path d="M152.8 125.5H89.7v-76c0-14.8 4-27.2 11.6-35.7 8.2-9.1 20-13.8 35.1-13.8h16.3v30.8l-.8-.1c-4.5-.4-5.7-.4-6.4-.4-13.4 0-19.4 7.3-19.4 23.6v8.8h26.6v62.8zm-61.7-1.4h60.1V64.3h-26.6V54c0-17.1 6.6-25.1 20.9-25.1.7 0 1.8 0 5.7.3V1.5h-14.9C107.5 1.5 91 19 91 49.5v74.6zm-27.7 1.4H.3v-76c0-14.8 4-27.2 11.6-35.7C20.1 4.7 31.9 0 47 0h16.3v30.8l-.8-.1c-4.5-.4-5.7-.4-6.4-.4-13.4 0-19.4 7.3-19.4 23.6v8.8h26.6v62.8zm-61.6-1.4h60.1V64.3H35.3V54c0-17.1 6.6-25.1 20.9-25.1.7 0 1.8 0 5.7.3V1.5H47C18.3 1.5 1.8 19 1.8 49.5v74.6z"/>
</svg>
