<svg xmlns="http://www.w3.org/2000/svg" viewBox="0 0 255 303">
  <path d="m126.3 302.6-.6-.6c-2.8-2.9-5.6-5.9-8.4-8.9-6-6.4-12.3-13.1-18.7-19.4-13-13-26.3-26.2-39.2-38.9-17.8-17.9-36.4-36.2-54.5-54.4-2.6-2.6-4.5-7.1-4.5-10.7-.3-18.8-.2-37.3-.2-57V91.3l95.7 94.4V.5h63.7v183.8L250.7 92l3.5 2v29.9c0 15.3 0 31.2-.1 46.8 0 2.6-1 6.4-3.2 8.5C215.3 214.9 179 251 144 286l-13.7 13.6c-.3.3-.7.6-1.4 1.1-.4.3-1 .7-1.8 1.3l-.8.6zM2.2 96v16.6c0 19.7-.1 38.3.2 57 0 3.2 1.7 7.1 4 9.3C24.5 197.1 43 215.4 61 233.1c12.9 12.7 26.2 25.9 39.2 38.9 6.4 6.4 12.7 13 18.7 19.5 2.6 2.8 5.2 5.5 7.8 8.3.5-.3.8-.6 1.2-.8.6-.4.9-.6 1.1-.9l13.7-13.6c35.1-35 71.3-71.1 106.8-106.8 1.5-1.5 2.6-4.5 2.6-7.2.2-15.6.2-31.4.1-46.8V95.1l-1.1-.7-93.5 94.7V2.5H97.9v188L2.2 96z"/>
</svg>
