<svg width="516" height="552" viewBox="0 0 516 552" fill="none" xmlns="http://www.w3.org/2000/svg">
<path d="M220.517 455.985C218.134 460.687 216.942 465.421 215.783 465.292C214.752 459.141 215.042 453.505 208.858 451.25C201.869 460.075 189.695 473.956 177.682 476.404C177.682 476.307 177.682 476.114 177.746 475.824C178.101 472.185 177.682 468.481 176.587 464.97C174.687 458.948 175.749 457.724 163.93 455.308C144.96 439.72 83.1548 460.397 75.8439 458.529C104.991 440.493 114.46 382.424 90.6268 358.205C81.2546 348.704 60.449 343.712 50.626 335.499L61.0932 330.539C62.8645 329.347 63.3476 326.996 62.1882 325.193C58.5166 309.057 24.3774 280.264 11.1404 269.893C5.47198 265.449 6.18053 266.963 -2 259.587C19.7396 262.486 42.4454 265.546 60.1592 260.908C63.0578 260.167 66.7938 255.497 69.6924 254.821C95.007 248.991 117.906 270.344 126.537 244.321C128.889 237.236 129.114 229.667 127.955 222.292C127.31 218.202 127.632 213.725 126.183 209.248C122.769 198.652 123.059 197.138 117.455 183.676C123.317 189.022 134.009 190.021 140.998 188.024C142.899 187.476 149.469 181.518 156.2 172.081C178.874 140.293 189.727 105.51 204.027 64.5105C211.113 44.0914 204.671 21.9653 205.122 4.67026C205.251 1.96489 204.993 0.0646828 205.187 0.00026914C205.38 -0.0319377 206.153 2.83447 206.861 4.25157C219.164 28.4711 243.094 59.4863 263.094 77.9408C272.628 86.7333 277.072 96.8462 289.762 102.128C295.752 104.608 302.612 103.803 308.023 100.196C309.698 99.0685 311.694 98.2633 314.368 97.6514C313.756 121.742 339.908 158.329 354.53 171.373C358.813 175.173 363.676 177.234 367.734 180.584C370.633 182.967 374.305 184.223 378.041 184.32C412.502 185.19 434.757 162.935 455.079 146.541C463.228 139.971 470.152 127.7 482.165 126.315C476.754 138.2 471.312 150.052 465.869 161.936C458.783 180.584 464.097 190.987 466.803 202.968C469.218 213.532 461.553 228.476 461.456 236.205C461.392 243.903 458.493 265.9 459.91 279.072C460.361 283.195 462.712 286.834 466.191 289.057C466.835 289.475 467.447 289.862 468.091 290.28C468.445 291.601 472.246 290.731 472.6 292.084C469.379 297.591 466.738 305.965 470.957 310.152C481.199 320.297 505.773 335.273 515.016 341.103C515.016 341.94 515.016 341.876 515.016 342.713C497.367 354.082 454.467 356.176 441.649 376.788C439.362 380.46 439.072 384.968 440.586 389.027C441.552 391.635 442.003 394.566 442.39 397.916C431.633 396.176 419.459 391.571 410.537 396.273C402.389 398.109 396.366 405.452 395.658 419.43C375.271 406.322 357.074 376.949 328.12 369.992C326.059 369.477 323.869 369.799 321.936 370.733C320.165 371.603 318.522 372.118 317.041 372.762C312.822 374.63 310.954 379.59 312.886 383.777C317.717 394.18 320.455 414.083 325.318 424.325C336.075 446.934 344.256 461.589 363.483 477.563C379.586 490.929 406.415 507.612 426.061 517.177C433.565 520.817 448.896 521.558 455.015 527.097C456.11 528.096 456.207 529.803 455.305 530.962C450.055 537.564 452.213 547.484 443.839 550.673C442.454 551.027 441.327 551.478 440.329 551.832C439.234 552.219 438.042 551.929 437.269 551.059C427.607 540.302 413.597 530.092 402.324 520.881C377.074 500.269 338.748 477.66 322.838 450.928C309.633 428.738 306.187 394.051 276.943 384.55C273.884 383.551 270.566 383.777 267.636 385.13C259.938 388.672 250.373 390.122 245.026 396.305C231.693 411.765 231.306 437.659 220.581 455.888" fill="white" fill-opacity="0.1" />
</svg>
