<svg xmlns="http://www.w3.org/2000/svg" viewBox="0 0 24 20">
  <path fill-rule="evenodd" d="M7.624 19.75c9.025 0 13.963-7.45 13.963-13.9 0-.209 0-.42-.01-.629a9.972 9.972 0 0 0 2.45-2.535 9.981 9.981 0 0 1-2.823.772A4.92 4.92 0 0 0 23.367.752a9.757 9.757 0 0 1-3.12 1.18A4.925 4.925 0 0 0 14.35.969a4.887 4.887 0 0 0-2.467 5.424A13.957 13.957 0 0 1 1.767 1.285 4.887 4.887 0 0 0 3.29 7.811a4.981 4.981 0 0 1-2.221-.608v.067a4.901 4.901 0 0 0 3.934 4.793 4.805 4.805 0 0 1-1.293.17 4.795 4.795 0 0 1-.918-.084 4.905 4.905 0 0 0 4.585 3.391 9.871 9.871 0 0 1-6.099 2.095c-.39.002-.779-.02-1.166-.067a14.006 14.006 0 0 0 7.513 2.182z"/>
</svg>
