<svg xmlns="http://www.w3.org/2000/svg" viewBox="0 0 23 17">
  <path d="M11.573.528h.127c1.17.004 7.1.047 8.699.475a2.857 2.857 0 0 1 2.014 2.015c.144.539.245 1.252.314 1.989l.014.147.031.369.012.147c.092 1.297.103 2.512.105 2.777v.106a45.354 45.354 0 0 1-.117 2.923l-.011.149-.013.147c-.071.812-.177 1.617-.335 2.21a2.852 2.852 0 0 1-2.014 2.015c-1.652.443-7.929.474-8.799.475h-.202c-.44 0-2.26-.008-4.167-.074l-.242-.008-.124-.006-.243-.01-.244-.01c-1.58-.07-3.085-.181-3.778-.368a2.852 2.852 0 0 1-2.015-2.014c-.158-.591-.263-1.398-.334-2.21l-.012-.149-.011-.147A44.39 44.39 0 0 1 .11 8.587v-.174c.003-.305.014-1.36.091-2.523l.01-.146.004-.074.012-.147.031-.369.014-.147c.069-.737.17-1.452.314-1.99A2.852 2.852 0 0 1 2.6 1.004C3.295.819 4.8.705 6.38.634l.242-.01.245-.008.122-.005.243-.01A142.57 142.57 0 0 1 11.3.53h.274V.528zm-2.35 4.554v6.835L15.14 8.5 9.223 5.08z"/>
</svg>
