<?xml version="1.0" encoding="UTF-8"?>
<svg id="b" data-name="Layer 2" xmlns="http://www.w3.org/2000/svg" viewBox="0 0 51.8 55">
  <g id="c" data-name="Layer 1">
    <path d="m25.9,0c16.8,0,25.9,3.2,25.9,3.2v51.8c-.6-.2-9.2-3.4-25.9-3.4S0,55,0,55V3.2h.2C1.2,2.8,10.2,0,25.9,0Zm-4.6,4.1h-.1c0,1.4.5,3.2-.1,4.9-1.2,3.3-2.6,7.3-4.6,9.9-.1.1-.2.2-.4.2-.7.1-1.6.2-2.1-.4q-.1.1-.3.1c.2.8.7,1.3.9,2,.1.4.1.7.1,1.1.1.6.1,1.2-.1,1.8-.7,2.1-2.6.4-4.6.9-.2.1-.5.4-.8.5-1.4.4-3.3.1-5.1-.1.7.6.6.5,1.1.8,1.1.8,3.9,3.2,4.2,4.5.1.1.1.3-.1.4l-.8.3c.8.7,2.5,1.1,3.3,1.8,1.9,2,1.2,6.7-1.2,8.2.6.2,5.6-1.5,7.2-.3,1,.2.9.3,1,.8.1.3.1.6.1.9,1-.2,2-1.3,2.5-2,.5.2.5.6.6,1.1.1,0,.2-.4.4-.8.9-1.5.9-3.6,2-4.8.4-.5,1.2-.6,1.8-.9.2,0,.5,0,.7,0,2.4.8,2.7,3.6,3.8,5.4,1.3,2.2,4.4,4,6.5,5.7.9.7,2.1,1.6,2.9,2.5,0,0,.2,0,.2,0,0,0,.2,0,.2,0,.7-.3.6-1.1,1.1-1.7,0,0,0-.2,0-.3-.5-.4-1.7-.5-2.4-.8-1.6-.8-3.8-2.1-5.1-3.2-1.6-1.3-2.2-2.5-3.1-4.3s-.6-2.4-1-3.3c-.2-.3,0-.7.3-.9.1,0,.3,0,.4-.2.2,0,.3,0,.5,0,2.4.6,3.8,3,5.5,4,0-1.1.5-1.7,1.2-1.9.7-.4,1.7,0,2.6,0,0-.3,0-.5-.2-.7,0-.3,0-.7,0-1,1-1.7,4.5-1.9,6-2.8h0c-.8-.6-2.8-1.8-3.6-2.6s0-1,0-1.5c0-.1-.3,0-.4-.1,0,0,0-.1-.2-.1-.3-.2-.5-.5-.5-.8,0-1.1,0-2.9,0-3.5s.6-1.8.4-2.7c-.2-1-.7-1.8,0-3.3s.9-1.9,1.3-2.9c-1,.1-1.5,1.1-2.2,1.6-1.7,1.3-3.5,3.2-6.3,3.1-.3,0-.6-.1-.8-.3-.3-.3-.7-.4-1.1-.7-1.2-1.1-3.3-4-3.3-6-.2,0-.4.1-.5.2-.4.3-1,.4-1.5.2-1-.4-1.4-1.3-2.2-2-1.4-1.5-3.3-4-4.3-6Z" stroke-width="0"/>
  </g>
</svg>